<?xml version="1.0" encoding="UTF-8"?> <svg xmlns="http://www.w3.org/2000/svg" width="459" height="95" viewBox="0 0 459 95" fill="none"> <path d="M240.581 75.1899C236.918 76.509 232.732 77.2006 228.087 77.2006C223.427 77.2006 219.228 76.509 215.554 75.1892C211.806 73.8425 208.608 71.8435 206.024 69.2591C203.437 66.672 201.438 63.4715 200.092 59.726C198.77 56.047 198.078 51.8476 198.078 47.1923C198.078 42.5367 198.77 38.3376 200.092 34.6587C201.438 30.9131 203.437 27.7126 206.024 25.1256C208.608 22.5415 211.806 20.5425 215.554 19.1955C219.229 17.8757 223.427 17.184 228.087 17.184C232.732 17.184 236.918 17.8757 240.582 19.1947C244.318 20.5402 247.507 22.5389 250.083 25.1222C252.664 27.7096 254.659 30.9113 256.002 34.6568C257.321 38.3354 258.011 42.536 258.011 47.1923C258.011 51.8491 257.321 56.0496 256.002 59.7279C254.659 63.4734 252.664 66.675 250.083 69.2625C247.507 71.8458 244.317 73.8444 240.581 75.1899ZM242.591 79.974C246.932 78.3685 250.677 75.9863 253.748 72.9075C256.818 69.8294 259.192 66.0756 260.792 61.7269C262.369 57.439 263.195 52.5683 263.195 47.1923C263.195 41.8167 262.369 36.9464 260.792 32.6585C259.193 28.3102 256.819 24.5552 253.748 21.4772C250.677 18.3984 246.932 16.0161 242.591 14.4106C238.315 12.8292 233.455 12 228.087 12C222.698 12 217.823 12.827 213.536 14.4057C209.185 16.0074 205.433 18.3859 202.359 21.4605C199.281 24.5382 196.903 28.292 195.302 32.6408C193.721 36.9324 192.895 41.8091 192.895 47.1923C192.895 52.5759 193.721 57.4522 195.302 61.7439C196.903 66.0926 199.281 69.8464 202.359 72.9241C205.433 75.9987 209.185 78.3768 213.536 79.979C217.823 81.5573 222.698 82.3846 228.087 82.3846C233.455 82.3846 238.315 81.5554 242.591 79.974Z" fill="#FF4D00"></path> <path fill-rule="evenodd" clip-rule="evenodd" d="M9 65.3518C9 65.9448 9.4044 66.4139 10.0624 66.4139C10.5171 66.4139 11.2764 66.5144 12.0357 66.5144C13.1488 66.5144 14.2611 66.3126 14.2611 65.3518V50.5289H35.1041C41.5293 50.5289 45.5767 46.227 45.5767 39.8529C45.5767 33.5804 41.3705 29.3813 35.1041 29.3813H10.0624C9.41159 29.3813 9 29.8439 9 30.4437V65.3518ZM214.164 61.2227H220.596V61.2242H235.427V61.2227H239.589C240.248 61.2227 240.652 61.6316 240.652 62.2851V65.4217C240.652 66.0726 240.242 66.4838 239.589 66.4838H214.164C213.511 66.4838 213.101 66.0782 213.101 65.4217V62.2851C213.101 61.6271 213.506 61.2227 214.164 61.2227ZM224.536 58.3918V57.2493L224.535 57.1884V37.5247H229.846V39.9874L229.848 40.0483V58.3918H224.536ZM35.0542 34.693C38.2415 34.693 40.3153 36.9184 40.3153 40.0052C40.3153 43.1414 38.1832 45.2674 35.0542 45.2674H14.2611V34.693H35.0542ZM55.2644 30.4437V65.3518C55.2644 65.952 55.6688 66.4139 56.3269 66.4139H59.5141C60.1215 66.4139 60.5263 65.9592 60.5263 65.3518V50.5289H69.3802L83.4435 66.0091C83.6578 66.2442 83.9495 66.4139 84.253 66.4139H88.5027C89.9182 66.4139 90.2731 65.7026 89.3119 64.6428L76.5118 50.5289H81.3693C87.6421 50.5289 91.8408 46.3805 91.8408 39.8529C91.8408 33.5804 87.635 29.3813 81.3693 29.3813H56.3269C55.676 29.3813 55.2644 29.8439 55.2644 30.4437ZM60.5263 34.693H81.319C84.4552 34.693 86.5801 36.8179 86.5801 40.0052C86.5801 43.1414 84.4481 45.2674 81.319 45.2674H60.5263V34.693ZM119.943 33.5293C128.949 33.5293 134.311 38.8414 134.311 47.898C134.311 56.9533 128.949 62.2651 119.943 62.2651C110.888 62.2651 105.525 56.9533 105.525 47.898C105.525 38.8414 110.888 33.5293 119.943 33.5293ZM119.943 67.4763C132.086 67.4763 139.472 60.0397 139.472 47.898C139.472 35.7558 132.086 28.3192 119.943 28.3192C107.752 28.3192 100.365 35.7558 100.365 47.898C100.365 60.0397 107.752 67.4763 119.943 67.4763ZM150.982 66.4139H154.168C154.776 66.4139 155.18 66.0091 155.18 65.3518V50.5791H178.553C179.21 50.5791 179.616 50.1233 179.616 49.5171V46.3298C179.616 45.6714 179.203 45.2674 178.553 45.2674H155.18V34.693H185.433C186.091 34.693 186.496 34.289 186.496 33.631V30.494C186.496 29.8367 186.084 29.4312 185.433 29.4312H150.982C150.331 29.4312 149.919 29.8439 149.919 30.494V65.3518C149.919 66.0019 150.323 66.4139 150.982 66.4139ZM275.925 66.4139H279.112C279.719 66.4139 280.123 66.0091 280.123 65.3518V50.5791H303.497C304.153 50.5791 304.559 50.1233 304.559 49.5171V46.3298C304.559 45.6714 304.149 45.2674 303.497 45.2674H280.123V34.693H310.376C311.034 34.693 311.439 34.289 311.439 33.631V30.494C311.439 29.8367 311.03 29.4312 310.376 29.4312H275.925C275.27 29.4312 274.862 29.8409 274.862 30.494V65.3518C274.862 66.0049 275.266 66.4139 275.925 66.4139ZM321.278 66.4139H355.73C356.388 66.4139 356.793 66.0091 356.793 65.3518V62.1645C356.793 61.556 356.384 61.152 355.73 61.152H325.478V50.5791H348.851C349.508 50.5791 349.913 50.1233 349.913 49.5171V46.3298C349.913 45.6714 349.504 45.2674 348.851 45.2674H325.478V34.693H355.73C356.388 34.693 356.793 34.289 356.793 33.631V30.494C356.793 29.8367 356.384 29.4312 355.73 29.4312H321.278C320.624 29.4312 320.216 29.8409 320.216 30.494V65.3518C320.216 66.0049 320.62 66.4139 321.278 66.4139ZM367.544 66.4139H401.995C402.653 66.4139 403.058 66.0091 403.058 65.3518V62.1645C403.058 61.556 402.649 61.152 401.995 61.152H371.742V50.5791H395.115C395.772 50.5791 396.178 50.1233 396.178 49.5171V46.3298C396.178 45.6714 395.768 45.2674 395.115 45.2674H371.742V34.693H401.995C402.653 34.693 403.058 34.289 403.058 33.631V30.494C403.058 29.8367 402.649 29.4312 401.995 29.4312H367.544C366.889 29.4312 366.481 29.8409 366.481 30.494V65.3518C366.481 66.0049 366.885 66.4139 367.544 66.4139ZM418.007 61.152V34.693H430.958C438.951 34.693 444.061 40.1579 444.061 47.9985C444.061 55.8406 438.795 61.152 430.958 61.152H418.007ZM413.808 29.4312C413.158 29.4312 412.745 29.8409 412.745 30.494V65.3518C412.745 66.0049 413.15 66.4139 413.808 66.4139H430.958C442.189 66.4139 449.322 58.876 449.322 47.7456C449.322 36.7676 441.982 29.4312 430.958 29.4312H413.808ZM214.163 34.693H220.596H224.535H229.846H235.427H239.588C240.246 34.693 240.651 34.289 240.651 33.631V30.494C240.651 29.8367 240.241 29.4312 239.588 29.4312H214.163C213.51 29.4312 213.1 29.8428 213.1 30.494V33.631C213.1 34.2875 213.504 34.693 214.163 34.693Z" fill="#012A47"></path> </svg> 